<?xml version="1.0" encoding="UTF-8" standalone="no"?>
<!DOCTYPE svg PUBLIC "-//W3C//DTD SVG 1.1//EN"
 "http://www.w3.org/Graphics/SVG/1.1/DTD/svg11.dtd">
<!-- Generated by graphviz version 2.47.1 (20210417.1919)
 -->
<!-- Title: Tree Pages: 1 -->
<svg width="833pt" height="790pt"
 viewBox="0.00 0.00 832.50 790.00" xmlns="http://www.w3.org/2000/svg" xmlns:xlink="http://www.w3.org/1999/xlink">
<g id="graph0" class="graph" transform="scale(1 1) rotate(0) translate(4 786)">
<title>Tree</title>
<polygon fill="white" stroke="transparent" points="-4,4 -4,-786 828.5,-786 828.5,4 -4,4"/>
<!-- 0 -->
<g id="node1" class="node">
<title>0</title>
<path fill="#fffdfc" stroke="black" d="M270,-782C270,-782 143,-782 143,-782 137,-782 131,-776 131,-770 131,-770 131,-711 131,-711 131,-705 137,-699 143,-699 143,-699 270,-699 270,-699 276,-699 282,-705 282,-711 282,-711 282,-770 282,-770 282,-776 276,-782 270,-782"/>
<text text-anchor="start" x="139" y="-766.8" font-family="Helvetica,sans-Serif" font-size="14.00">petal width (cm) ≤ 0.8</text>
<text text-anchor="start" x="169" y="-751.8" font-family="Helvetica,sans-Serif" font-size="14.00">gini = 0.667</text>
<text text-anchor="start" x="159" y="-736.8" font-family="Helvetica,sans-Serif" font-size="14.00">samples = 112</text>
<text text-anchor="start" x="146" y="-721.8" font-family="Helvetica,sans-Serif" font-size="14.00">value = [38, 37, 37]</text>
<text text-anchor="start" x="160.5" y="-706.8" font-family="Helvetica,sans-Serif" font-size="14.00">class = setosa</text>
</g>
<!-- 1 -->
<g id="node2" class="node">
<title>1</title>
<path fill="#e58139" stroke="black" d="M175,-655.5C175,-655.5 78,-655.5 78,-655.5 72,-655.5 66,-649.5 66,-643.5 66,-643.5 66,-599.5 66,-599.5 66,-593.5 72,-587.5 78,-587.5 78,-587.5 175,-587.5 175,-587.5 181,-587.5 187,-593.5 187,-599.5 187,-599.5 187,-643.5 187,-643.5 187,-649.5 181,-655.5 175,-655.5"/>
<text text-anchor="start" x="97.5" y="-640.3" font-family="Helvetica,sans-Serif" font-size="14.00">gini = 0.0</text>
<text text-anchor="start" x="83" y="-625.3" font-family="Helvetica,sans-Serif" font-size="14.00">samples = 38</text>
<text text-anchor="start" x="74" y="-610.3" font-family="Helvetica,sans-Serif" font-size="14.00">value = [38, 0, 0]</text>
<text text-anchor="start" x="80.5" y="-595.3" font-family="Helvetica,sans-Serif" font-size="14.00">class = setosa</text>
</g>
<!-- 0&#45;&gt;1 -->
<g id="edge1" class="edge">
<title>0&#45;&gt;1</title>
<path fill="none" stroke="black" d="M178.74,-698.91C171.05,-687.65 162.68,-675.42 154.95,-664.11"/>
<polygon fill="black" stroke="black" points="157.71,-661.95 149.18,-655.67 151.93,-665.9 157.71,-661.95"/>
<text text-anchor="middle" x="144.56" y="-676.54" font-family="Helvetica,sans-Serif" font-size="14.00">True</text>
</g>
<!-- 2 -->
<g id="node3" class="node">
<title>2</title>
<path fill="#ffffff" stroke="black" d="M358,-663C358,-663 217,-663 217,-663 211,-663 205,-657 205,-651 205,-651 205,-592 205,-592 205,-586 211,-580 217,-580 217,-580 358,-580 358,-580 364,-580 370,-586 370,-592 370,-592 370,-651 370,-651 370,-657 364,-663 358,-663"/>
<text text-anchor="start" x="213" y="-647.8" font-family="Helvetica,sans-Serif" font-size="14.00">petal length (cm) ≤ 4.75</text>
<text text-anchor="start" x="258.5" y="-632.8" font-family="Helvetica,sans-Serif" font-size="14.00">gini = 0.5</text>
<text text-anchor="start" x="244" y="-617.8" font-family="Helvetica,sans-Serif" font-size="14.00">samples = 74</text>
<text text-anchor="start" x="231" y="-602.8" font-family="Helvetica,sans-Serif" font-size="14.00">value = [0, 37, 37]</text>
<text text-anchor="start" x="232" y="-587.8" font-family="Helvetica,sans-Serif" font-size="14.00">class = versicolor</text>
</g>
<!-- 0&#45;&gt;2 -->
<g id="edge2" class="edge">
<title>0&#45;&gt;2</title>
<path fill="none" stroke="black" d="M234.6,-698.91C240.76,-690.01 247.34,-680.51 253.69,-671.33"/>
<polygon fill="black" stroke="black" points="256.63,-673.24 259.45,-663.02 250.88,-669.25 256.63,-673.24"/>
<text text-anchor="middle" x="263.92" y="-683.92" font-family="Helvetica,sans-Serif" font-size="14.00">False</text>
</g>
<!-- 3 -->
<g id="node4" class="node">
<title>3</title>
<path fill="#3fe685" stroke="black" d="M265,-544C265,-544 130,-544 130,-544 124,-544 118,-538 118,-532 118,-532 118,-473 118,-473 118,-467 124,-461 130,-461 130,-461 265,-461 265,-461 271,-461 277,-467 277,-473 277,-473 277,-532 277,-532 277,-538 271,-544 265,-544"/>
<text text-anchor="start" x="126" y="-528.8" font-family="Helvetica,sans-Serif" font-size="14.00">petal width (cm) ≤ 1.65</text>
<text text-anchor="start" x="160" y="-513.8" font-family="Helvetica,sans-Serif" font-size="14.00">gini = 0.057</text>
<text text-anchor="start" x="154" y="-498.8" font-family="Helvetica,sans-Serif" font-size="14.00">samples = 34</text>
<text text-anchor="start" x="145" y="-483.8" font-family="Helvetica,sans-Serif" font-size="14.00">value = [0, 33, 1]</text>
<text text-anchor="start" x="142" y="-468.8" font-family="Helvetica,sans-Serif" font-size="14.00">class = versicolor</text>
</g>
<!-- 2&#45;&gt;3 -->
<g id="edge3" class="edge">
<title>2&#45;&gt;3</title>
<path fill="none" stroke="black" d="M256.27,-579.91C249.36,-570.92 241.97,-561.32 234.85,-552.05"/>
<polygon fill="black" stroke="black" points="237.54,-549.81 228.67,-544.02 231.99,-554.08 237.54,-549.81"/>
</g>
<!-- 6 -->
<g id="node7" class="node">
<title>6</title>
<path fill="#8f4fe8" stroke="black" d="M448,-544C448,-544 307,-544 307,-544 301,-544 295,-538 295,-532 295,-532 295,-473 295,-473 295,-467 301,-461 307,-461 307,-461 448,-461 448,-461 454,-461 460,-467 460,-473 460,-473 460,-532 460,-532 460,-538 454,-544 448,-544"/>
<text text-anchor="start" x="303" y="-528.8" font-family="Helvetica,sans-Serif" font-size="14.00">petal length (cm) ≤ 4.95</text>
<text text-anchor="start" x="344" y="-513.8" font-family="Helvetica,sans-Serif" font-size="14.00">gini = 0.18</text>
<text text-anchor="start" x="334" y="-498.8" font-family="Helvetica,sans-Serif" font-size="14.00">samples = 40</text>
<text text-anchor="start" x="325" y="-483.8" font-family="Helvetica,sans-Serif" font-size="14.00">value = [0, 4, 36]</text>
<text text-anchor="start" x="327.5" y="-468.8" font-family="Helvetica,sans-Serif" font-size="14.00">class = virginica</text>
</g>
<!-- 2&#45;&gt;6 -->
<g id="edge6" class="edge">
<title>2&#45;&gt;6</title>
<path fill="none" stroke="black" d="M318.73,-579.91C325.64,-570.92 333.03,-561.32 340.15,-552.05"/>
<polygon fill="black" stroke="black" points="343.01,-554.08 346.33,-544.02 337.46,-549.81 343.01,-554.08"/>
</g>
<!-- 4 -->
<g id="node5" class="node">
<title>4</title>
<path fill="#39e581" stroke="black" d="M115,-417.5C115,-417.5 12,-417.5 12,-417.5 6,-417.5 0,-411.5 0,-405.5 0,-405.5 0,-361.5 0,-361.5 0,-355.5 6,-349.5 12,-349.5 12,-349.5 115,-349.5 115,-349.5 121,-349.5 127,-355.5 127,-361.5 127,-361.5 127,-405.5 127,-405.5 127,-411.5 121,-417.5 115,-417.5"/>
<text text-anchor="start" x="34.5" y="-402.3" font-family="Helvetica,sans-Serif" font-size="14.00">gini = 0.0</text>
<text text-anchor="start" x="20" y="-387.3" font-family="Helvetica,sans-Serif" font-size="14.00">samples = 33</text>
<text text-anchor="start" x="11" y="-372.3" font-family="Helvetica,sans-Serif" font-size="14.00">value = [0, 33, 0]</text>
<text text-anchor="start" x="8" y="-357.3" font-family="Helvetica,sans-Serif" font-size="14.00">class = versicolor</text>
</g>
<!-- 3&#45;&gt;4 -->
<g id="edge4" class="edge">
<title>3&#45;&gt;4</title>
<path fill="none" stroke="black" d="M151.01,-460.91C137.49,-449.1 122.73,-436.22 109.25,-424.45"/>
<polygon fill="black" stroke="black" points="111.32,-421.61 101.49,-417.67 106.72,-426.88 111.32,-421.61"/>
</g>
<!-- 5 -->
<g id="node6" class="node">
<title>5</title>
<path fill="#8139e5" stroke="black" d="M249.5,-417.5C249.5,-417.5 157.5,-417.5 157.5,-417.5 151.5,-417.5 145.5,-411.5 145.5,-405.5 145.5,-405.5 145.5,-361.5 145.5,-361.5 145.5,-355.5 151.5,-349.5 157.5,-349.5 157.5,-349.5 249.5,-349.5 249.5,-349.5 255.5,-349.5 261.5,-355.5 261.5,-361.5 261.5,-361.5 261.5,-405.5 261.5,-405.5 261.5,-411.5 255.5,-417.5 249.5,-417.5"/>
<text text-anchor="start" x="174.5" y="-402.3" font-family="Helvetica,sans-Serif" font-size="14.00">gini = 0.0</text>
<text text-anchor="start" x="164" y="-387.3" font-family="Helvetica,sans-Serif" font-size="14.00">samples = 1</text>
<text text-anchor="start" x="155" y="-372.3" font-family="Helvetica,sans-Serif" font-size="14.00">value = [0, 0, 1]</text>
<text text-anchor="start" x="153.5" y="-357.3" font-family="Helvetica,sans-Serif" font-size="14.00">class = virginica</text>
</g>
<!-- 3&#45;&gt;5 -->
<g id="edge5" class="edge">
<title>3&#45;&gt;5</title>
<path fill="none" stroke="black" d="M199.58,-460.91C200.13,-450.2 200.72,-438.62 201.28,-427.78"/>
<polygon fill="black" stroke="black" points="204.78,-427.83 201.8,-417.67 197.79,-427.47 204.78,-427.83"/>
</g>
<!-- 7 -->
<g id="node8" class="node">
<title>7</title>
<path fill="#ffffff" stroke="black" d="M439,-425C439,-425 304,-425 304,-425 298,-425 292,-419 292,-413 292,-413 292,-354 292,-354 292,-348 298,-342 304,-342 304,-342 439,-342 439,-342 445,-342 451,-348 451,-354 451,-354 451,-413 451,-413 451,-419 445,-425 439,-425"/>
<text text-anchor="start" x="300" y="-409.8" font-family="Helvetica,sans-Serif" font-size="14.00">petal width (cm) ≤ 1.65</text>
<text text-anchor="start" x="342.5" y="-394.8" font-family="Helvetica,sans-Serif" font-size="14.00">gini = 0.5</text>
<text text-anchor="start" x="332" y="-379.8" font-family="Helvetica,sans-Serif" font-size="14.00">samples = 6</text>
<text text-anchor="start" x="323" y="-364.8" font-family="Helvetica,sans-Serif" font-size="14.00">value = [0, 3, 3]</text>
<text text-anchor="start" x="316" y="-349.8" font-family="Helvetica,sans-Serif" font-size="14.00">class = versicolor</text>
</g>
<!-- 6&#45;&gt;7 -->
<g id="edge7" class="edge">
<title>6&#45;&gt;7</title>
<path fill="none" stroke="black" d="M375.42,-460.91C374.99,-452.56 374.53,-443.67 374.09,-435.02"/>
<polygon fill="black" stroke="black" points="377.59,-434.83 373.58,-425.02 370.59,-435.19 377.59,-434.83"/>
</g>
<!-- 12 -->
<g id="node13" class="node">
<title>12</title>
<path fill="#853fe6" stroke="black" d="M610,-425C610,-425 483,-425 483,-425 477,-425 471,-419 471,-413 471,-413 471,-354 471,-354 471,-348 477,-342 483,-342 483,-342 610,-342 610,-342 616,-342 622,-348 622,-354 622,-354 622,-413 622,-413 622,-419 616,-425 610,-425"/>
<text text-anchor="start" x="479" y="-409.8" font-family="Helvetica,sans-Serif" font-size="14.00">petal width (cm) ≤ 1.7</text>
<text text-anchor="start" x="509" y="-394.8" font-family="Helvetica,sans-Serif" font-size="14.00">gini = 0.057</text>
<text text-anchor="start" x="503" y="-379.8" font-family="Helvetica,sans-Serif" font-size="14.00">samples = 34</text>
<text text-anchor="start" x="494" y="-364.8" font-family="Helvetica,sans-Serif" font-size="14.00">value = [0, 1, 33]</text>
<text text-anchor="start" x="496.5" y="-349.8" font-family="Helvetica,sans-Serif" font-size="14.00">class = virginica</text>
</g>
<!-- 6&#45;&gt;12 -->
<g id="edge12" class="edge">
<title>6&#45;&gt;12</title>
<path fill="none" stroke="black" d="M436.13,-460.91C450.16,-451.2 465.24,-440.76 479.61,-430.81"/>
<polygon fill="black" stroke="black" points="481.74,-433.59 487.97,-425.02 477.76,-427.84 481.74,-433.59"/>
</g>
<!-- 8 -->
<g id="node9" class="node">
<title>8</title>
<path fill="#39e581" stroke="black" d="M264,-298.5C264,-298.5 161,-298.5 161,-298.5 155,-298.5 149,-292.5 149,-286.5 149,-286.5 149,-242.5 149,-242.5 149,-236.5 155,-230.5 161,-230.5 161,-230.5 264,-230.5 264,-230.5 270,-230.5 276,-236.5 276,-242.5 276,-242.5 276,-286.5 276,-286.5 276,-292.5 270,-298.5 264,-298.5"/>
<text text-anchor="start" x="183.5" y="-283.3" font-family="Helvetica,sans-Serif" font-size="14.00">gini = 0.0</text>
<text text-anchor="start" x="173" y="-268.3" font-family="Helvetica,sans-Serif" font-size="14.00">samples = 2</text>
<text text-anchor="start" x="164" y="-253.3" font-family="Helvetica,sans-Serif" font-size="14.00">value = [0, 2, 0]</text>
<text text-anchor="start" x="157" y="-238.3" font-family="Helvetica,sans-Serif" font-size="14.00">class = versicolor</text>
</g>
<!-- 7&#45;&gt;8 -->
<g id="edge8" class="edge">
<title>7&#45;&gt;8</title>
<path fill="none" stroke="black" d="M316.34,-341.91C299.99,-329.88 282.13,-316.73 265.9,-304.79"/>
<polygon fill="black" stroke="black" points="267.7,-301.77 257.57,-298.67 263.55,-307.41 267.7,-301.77"/>
</g>
<!-- 9 -->
<g id="node10" class="node">
<title>9</title>
<path fill="#ab7bee" stroke="black" d="M437,-306C437,-306 306,-306 306,-306 300,-306 294,-300 294,-294 294,-294 294,-235 294,-235 294,-229 300,-223 306,-223 306,-223 437,-223 437,-223 443,-223 449,-229 449,-235 449,-235 449,-294 449,-294 449,-300 443,-306 437,-306"/>
<text text-anchor="start" x="302" y="-290.8" font-family="Helvetica,sans-Serif" font-size="14.00">sepal width (cm) ≤ 3.0</text>
<text text-anchor="start" x="334" y="-275.8" font-family="Helvetica,sans-Serif" font-size="14.00">gini = 0.375</text>
<text text-anchor="start" x="332" y="-260.8" font-family="Helvetica,sans-Serif" font-size="14.00">samples = 4</text>
<text text-anchor="start" x="323" y="-245.8" font-family="Helvetica,sans-Serif" font-size="14.00">value = [0, 1, 3]</text>
<text text-anchor="start" x="321.5" y="-230.8" font-family="Helvetica,sans-Serif" font-size="14.00">class = virginica</text>
</g>
<!-- 7&#45;&gt;9 -->
<g id="edge9" class="edge">
<title>7&#45;&gt;9</title>
<path fill="none" stroke="black" d="M371.5,-341.91C371.5,-333.65 371.5,-324.86 371.5,-316.3"/>
<polygon fill="black" stroke="black" points="375,-316.02 371.5,-306.02 368,-316.02 375,-316.02"/>
</g>
<!-- 10 -->
<g id="node11" class="node">
<title>10</title>
<path fill="#8139e5" stroke="black" d="M286.5,-179.5C286.5,-179.5 194.5,-179.5 194.5,-179.5 188.5,-179.5 182.5,-173.5 182.5,-167.5 182.5,-167.5 182.5,-123.5 182.5,-123.5 182.5,-117.5 188.5,-111.5 194.5,-111.5 194.5,-111.5 286.5,-111.5 286.5,-111.5 292.5,-111.5 298.5,-117.5 298.5,-123.5 298.5,-123.5 298.5,-167.5 298.5,-167.5 298.5,-173.5 292.5,-179.5 286.5,-179.5"/>
<text text-anchor="start" x="211.5" y="-164.3" font-family="Helvetica,sans-Serif" font-size="14.00">gini = 0.0</text>
<text text-anchor="start" x="201" y="-149.3" font-family="Helvetica,sans-Serif" font-size="14.00">samples = 3</text>
<text text-anchor="start" x="192" y="-134.3" font-family="Helvetica,sans-Serif" font-size="14.00">value = [0, 0, 3]</text>
<text text-anchor="start" x="190.5" y="-119.3" font-family="Helvetica,sans-Serif" font-size="14.00">class = virginica</text>
</g>
<!-- 9&#45;&gt;10 -->
<g id="edge10" class="edge">
<title>9&#45;&gt;10</title>
<path fill="none" stroke="black" d="M326.05,-222.91C312.83,-211.1 298.4,-198.22 285.23,-186.45"/>
<polygon fill="black" stroke="black" points="287.43,-183.72 277.64,-179.67 282.76,-188.94 287.43,-183.72"/>
</g>
<!-- 11 -->
<g id="node12" class="node">
<title>11</title>
<path fill="#39e581" stroke="black" d="M432,-179.5C432,-179.5 329,-179.5 329,-179.5 323,-179.5 317,-173.5 317,-167.5 317,-167.5 317,-123.5 317,-123.5 317,-117.5 323,-111.5 329,-111.5 329,-111.5 432,-111.5 432,-111.5 438,-111.5 444,-117.5 444,-123.5 444,-123.5 444,-167.5 444,-167.5 444,-173.5 438,-179.5 432,-179.5"/>
<text text-anchor="start" x="351.5" y="-164.3" font-family="Helvetica,sans-Serif" font-size="14.00">gini = 0.0</text>
<text text-anchor="start" x="341" y="-149.3" font-family="Helvetica,sans-Serif" font-size="14.00">samples = 1</text>
<text text-anchor="start" x="332" y="-134.3" font-family="Helvetica,sans-Serif" font-size="14.00">value = [0, 1, 0]</text>
<text text-anchor="start" x="325" y="-119.3" font-family="Helvetica,sans-Serif" font-size="14.00">class = versicolor</text>
</g>
<!-- 9&#45;&gt;11 -->
<g id="edge11" class="edge">
<title>9&#45;&gt;11</title>
<path fill="none" stroke="black" d="M374.62,-222.91C375.45,-212.2 376.34,-200.62 377.17,-189.78"/>
<polygon fill="black" stroke="black" points="380.67,-189.91 377.95,-179.67 373.69,-189.37 380.67,-189.91"/>
</g>
<!-- 13 -->
<g id="node14" class="node">
<title>13</title>
<path fill="#a06aec" stroke="black" d="M614,-306C614,-306 479,-306 479,-306 473,-306 467,-300 467,-294 467,-294 467,-235 467,-235 467,-229 473,-223 479,-223 479,-223 614,-223 614,-223 620,-223 626,-229 626,-235 626,-235 626,-294 626,-294 626,-300 620,-306 614,-306"/>
<text text-anchor="start" x="475" y="-290.8" font-family="Helvetica,sans-Serif" font-size="14.00">petal width (cm) ≤ 1.55</text>
<text text-anchor="start" x="513" y="-275.8" font-family="Helvetica,sans-Serif" font-size="14.00">gini = 0.32</text>
<text text-anchor="start" x="507" y="-260.8" font-family="Helvetica,sans-Serif" font-size="14.00">samples = 5</text>
<text text-anchor="start" x="498" y="-245.8" font-family="Helvetica,sans-Serif" font-size="14.00">value = [0, 1, 4]</text>
<text text-anchor="start" x="496.5" y="-230.8" font-family="Helvetica,sans-Serif" font-size="14.00">class = virginica</text>
</g>
<!-- 12&#45;&gt;13 -->
<g id="edge13" class="edge">
<title>12&#45;&gt;13</title>
<path fill="none" stroke="black" d="M546.5,-341.91C546.5,-333.65 546.5,-324.86 546.5,-316.3"/>
<polygon fill="black" stroke="black" points="550,-316.02 546.5,-306.02 543,-316.02 550,-316.02"/>
</g>
<!-- 18 -->
<g id="node19" class="node">
<title>18</title>
<path fill="#8139e5" stroke="black" d="M753,-298.5C753,-298.5 656,-298.5 656,-298.5 650,-298.5 644,-292.5 644,-286.5 644,-286.5 644,-242.5 644,-242.5 644,-236.5 650,-230.5 656,-230.5 656,-230.5 753,-230.5 753,-230.5 759,-230.5 765,-236.5 765,-242.5 765,-242.5 765,-286.5 765,-286.5 765,-292.5 759,-298.5 753,-298.5"/>
<text text-anchor="start" x="675.5" y="-283.3" font-family="Helvetica,sans-Serif" font-size="14.00">gini = 0.0</text>
<text text-anchor="start" x="661" y="-268.3" font-family="Helvetica,sans-Serif" font-size="14.00">samples = 29</text>
<text text-anchor="start" x="652" y="-253.3" font-family="Helvetica,sans-Serif" font-size="14.00">value = [0, 0, 29]</text>
<text text-anchor="start" x="654.5" y="-238.3" font-family="Helvetica,sans-Serif" font-size="14.00">class = virginica</text>
</g>
<!-- 12&#45;&gt;18 -->
<g id="edge18" class="edge">
<title>12&#45;&gt;18</title>
<path fill="none" stroke="black" d="M601.32,-341.91C617.56,-329.88 635.31,-316.73 651.44,-304.79"/>
<polygon fill="black" stroke="black" points="653.76,-307.43 659.71,-298.67 649.59,-301.81 653.76,-307.43"/>
</g>
<!-- 14 -->
<g id="node15" class="node">
<title>14</title>
<path fill="#8139e5" stroke="black" d="M583.5,-179.5C583.5,-179.5 491.5,-179.5 491.5,-179.5 485.5,-179.5 479.5,-173.5 479.5,-167.5 479.5,-167.5 479.5,-123.5 479.5,-123.5 479.5,-117.5 485.5,-111.5 491.5,-111.5 491.5,-111.5 583.5,-111.5 583.5,-111.5 589.5,-111.5 595.5,-117.5 595.5,-123.5 595.5,-123.5 595.5,-167.5 595.5,-167.5 595.5,-173.5 589.5,-179.5 583.5,-179.5"/>
<text text-anchor="start" x="508.5" y="-164.3" font-family="Helvetica,sans-Serif" font-size="14.00">gini = 0.0</text>
<text text-anchor="start" x="498" y="-149.3" font-family="Helvetica,sans-Serif" font-size="14.00">samples = 3</text>
<text text-anchor="start" x="489" y="-134.3" font-family="Helvetica,sans-Serif" font-size="14.00">value = [0, 0, 3]</text>
<text text-anchor="start" x="487.5" y="-119.3" font-family="Helvetica,sans-Serif" font-size="14.00">class = virginica</text>
</g>
<!-- 13&#45;&gt;14 -->
<g id="edge14" class="edge">
<title>13&#45;&gt;14</title>
<path fill="none" stroke="black" d="M543.38,-222.91C542.55,-212.2 541.66,-200.62 540.83,-189.78"/>
<polygon fill="black" stroke="black" points="544.31,-189.37 540.05,-179.67 537.33,-189.91 544.31,-189.37"/>
</g>
<!-- 15 -->
<g id="node16" class="node">
<title>15</title>
<path fill="#ffffff" stroke="black" d="M767,-187C767,-187 626,-187 626,-187 620,-187 614,-181 614,-175 614,-175 614,-116 614,-116 614,-110 620,-104 626,-104 626,-104 767,-104 767,-104 773,-104 779,-110 779,-116 779,-116 779,-175 779,-175 779,-181 773,-187 767,-187"/>
<text text-anchor="start" x="622" y="-171.8" font-family="Helvetica,sans-Serif" font-size="14.00">petal length (cm) ≤ 5.45</text>
<text text-anchor="start" x="667.5" y="-156.8" font-family="Helvetica,sans-Serif" font-size="14.00">gini = 0.5</text>
<text text-anchor="start" x="657" y="-141.8" font-family="Helvetica,sans-Serif" font-size="14.00">samples = 2</text>
<text text-anchor="start" x="648" y="-126.8" font-family="Helvetica,sans-Serif" font-size="14.00">value = [0, 1, 1]</text>
<text text-anchor="start" x="641" y="-111.8" font-family="Helvetica,sans-Serif" font-size="14.00">class = versicolor</text>
</g>
<!-- 13&#45;&gt;15 -->
<g id="edge15" class="edge">
<title>13&#45;&gt;15</title>
<path fill="none" stroke="black" d="M598.54,-222.91C610.76,-213.38 623.87,-203.15 636.41,-193.37"/>
<polygon fill="black" stroke="black" points="638.82,-195.93 644.55,-187.02 634.51,-190.41 638.82,-195.93"/>
</g>
<!-- 16 -->
<g id="node17" class="node">
<title>16</title>
<path fill="#39e581" stroke="black" d="M678,-68C678,-68 575,-68 575,-68 569,-68 563,-62 563,-56 563,-56 563,-12 563,-12 563,-6 569,0 575,0 575,0 678,0 678,0 684,0 690,-6 690,-12 690,-12 690,-56 690,-56 690,-62 684,-68 678,-68"/>
<text text-anchor="start" x="597.5" y="-52.8" font-family="Helvetica,sans-Serif" font-size="14.00">gini = 0.0</text>
<text text-anchor="start" x="587" y="-37.8" font-family="Helvetica,sans-Serif" font-size="14.00">samples = 1</text>
<text text-anchor="start" x="578" y="-22.8" font-family="Helvetica,sans-Serif" font-size="14.00">value = [0, 1, 0]</text>
<text text-anchor="start" x="571" y="-7.8" font-family="Helvetica,sans-Serif" font-size="14.00">class = versicolor</text>
</g>
<!-- 15&#45;&gt;16 -->
<g id="edge16" class="edge">
<title>15&#45;&gt;16</title>
<path fill="none" stroke="black" d="M670.43,-103.73C664.84,-94.97 658.91,-85.7 653.29,-76.91"/>
<polygon fill="black" stroke="black" points="656.12,-74.84 647.79,-68.3 650.22,-78.61 656.12,-74.84"/>
</g>
<!-- 17 -->
<g id="node18" class="node">
<title>17</title>
<path fill="#8139e5" stroke="black" d="M812.5,-68C812.5,-68 720.5,-68 720.5,-68 714.5,-68 708.5,-62 708.5,-56 708.5,-56 708.5,-12 708.5,-12 708.5,-6 714.5,0 720.5,0 720.5,0 812.5,0 812.5,0 818.5,0 824.5,-6 824.5,-12 824.5,-12 824.5,-56 824.5,-56 824.5,-62 818.5,-68 812.5,-68"/>
<text text-anchor="start" x="737.5" y="-52.8" font-family="Helvetica,sans-Serif" font-size="14.00">gini = 0.0</text>
<text text-anchor="start" x="727" y="-37.8" font-family="Helvetica,sans-Serif" font-size="14.00">samples = 1</text>
<text text-anchor="start" x="718" y="-22.8" font-family="Helvetica,sans-Serif" font-size="14.00">value = [0, 0, 1]</text>
<text text-anchor="start" x="716.5" y="-7.8" font-family="Helvetica,sans-Serif" font-size="14.00">class = virginica</text>
</g>
<!-- 15&#45;&gt;17 -->
<g id="edge17" class="edge">
<title>15&#45;&gt;17</title>
<path fill="none" stroke="black" d="M722.57,-103.73C728.16,-94.97 734.09,-85.7 739.71,-76.91"/>
<polygon fill="black" stroke="black" points="742.78,-78.61 745.21,-68.3 736.88,-74.84 742.78,-78.61"/>
</g>
</g>
</svg>
