<?xml version="1.0" encoding="UTF-8" standalone="no"?>
<!DOCTYPE svg PUBLIC "-//W3C//DTD SVG 1.1//EN"
 "http://www.w3.org/Graphics/SVG/1.1/DTD/svg11.dtd">
<!-- Generated by graphviz version 2.47.1 (20210417.1919)
 -->
<!-- Title: Tree Pages: 1 -->
<svg width="482pt" height="261pt"
 viewBox="0.00 0.00 482.00 261.00" xmlns="http://www.w3.org/2000/svg" xmlns:xlink="http://www.w3.org/1999/xlink">
<g id="graph0" class="graph" transform="scale(1 1) rotate(0) translate(4 257)">
<title>Tree</title>
<polygon fill="white" stroke="transparent" points="-4,4 -4,-257 478,-257 478,4 -4,4"/>
<!-- 0 -->
<g id="node1" class="node">
<title>0</title>
<path fill="#efb083" stroke="black" d="M273,-253C273,-253 194,-253 194,-253 188,-253 182,-247 182,-241 182,-241 182,-201 182,-201 182,-195 188,-189 194,-189 194,-189 273,-189 273,-189 279,-189 285,-195 285,-201 285,-201 285,-241 285,-241 285,-247 279,-253 273,-253"/>
<text text-anchor="start" x="199" y="-238.8" font-family="Helvetica,sans-Serif" font-size="14.00">X</text>
<text text-anchor="start" x="209" y="-238.8" font-family="Helvetica,sans-Serif" baseline-shift="sub" font-size="14.00">0</text>
<text text-anchor="start" x="216" y="-238.8" font-family="Helvetica,sans-Serif" font-size="14.00"> ≤ 3.133</text>
<text text-anchor="start" x="193" y="-224.8" font-family="Helvetica,sans-Serif" font-size="14.00">mse = 0.547</text>
<text text-anchor="start" x="190" y="-210.8" font-family="Helvetica,sans-Serif" font-size="14.00">samples = 80</text>
<text text-anchor="start" x="190.5" y="-196.8" font-family="Helvetica,sans-Serif" font-size="14.00">value = 0.122</text>
</g>
<!-- 1 -->
<g id="node2" class="node">
<title>1</title>
<path fill="#e78c4b" stroke="black" d="M212,-153C212,-153 133,-153 133,-153 127,-153 121,-147 121,-141 121,-141 121,-101 121,-101 121,-95 127,-89 133,-89 133,-89 212,-89 212,-89 218,-89 224,-95 224,-101 224,-101 224,-141 224,-141 224,-147 218,-153 212,-153"/>
<text text-anchor="start" x="138" y="-138.8" font-family="Helvetica,sans-Serif" font-size="14.00">X</text>
<text text-anchor="start" x="148" y="-138.8" font-family="Helvetica,sans-Serif" baseline-shift="sub" font-size="14.00">0</text>
<text text-anchor="start" x="155" y="-138.8" font-family="Helvetica,sans-Serif" font-size="14.00"> ≤ 0.514</text>
<text text-anchor="start" x="132" y="-124.8" font-family="Helvetica,sans-Serif" font-size="14.00">mse = 0.231</text>
<text text-anchor="start" x="129" y="-110.8" font-family="Helvetica,sans-Serif" font-size="14.00">samples = 51</text>
<text text-anchor="start" x="129.5" y="-96.8" font-family="Helvetica,sans-Serif" font-size="14.00">value = 0.571</text>
</g>
<!-- 0&#45;&gt;1 -->
<g id="edge1" class="edge">
<title>0&#45;&gt;1</title>
<path fill="none" stroke="black" d="M214.2,-188.99C208.8,-180.32 202.86,-170.78 197.2,-161.68"/>
<polygon fill="black" stroke="black" points="200.14,-159.78 191.88,-153.14 194.2,-163.48 200.14,-159.78"/>
<text text-anchor="middle" x="186.22" y="-173.79" font-family="Helvetica,sans-Serif" font-size="14.00">True</text>
</g>
<!-- 4 -->
<g id="node5" class="node">
<title>4</title>
<path fill="#fcefe6" stroke="black" d="M337,-153C337,-153 254,-153 254,-153 248,-153 242,-147 242,-141 242,-141 242,-101 242,-101 242,-95 248,-89 254,-89 254,-89 337,-89 337,-89 343,-89 349,-95 349,-101 349,-101 349,-141 349,-141 349,-147 343,-153 337,-153"/>
<text text-anchor="start" x="265" y="-138.8" font-family="Helvetica,sans-Serif" font-size="14.00">X</text>
<text text-anchor="start" x="275" y="-138.8" font-family="Helvetica,sans-Serif" baseline-shift="sub" font-size="14.00">0</text>
<text text-anchor="start" x="282" y="-138.8" font-family="Helvetica,sans-Serif" font-size="14.00"> ≤ 3.85</text>
<text text-anchor="start" x="255" y="-124.8" font-family="Helvetica,sans-Serif" font-size="14.00">mse = 0.124</text>
<text text-anchor="start" x="252" y="-110.8" font-family="Helvetica,sans-Serif" font-size="14.00">samples = 29</text>
<text text-anchor="start" x="250" y="-96.8" font-family="Helvetica,sans-Serif" font-size="14.00">value = &#45;0.667</text>
</g>
<!-- 0&#45;&gt;4 -->
<g id="edge4" class="edge">
<title>0&#45;&gt;4</title>
<path fill="none" stroke="black" d="M253.12,-188.99C258.6,-180.32 264.64,-170.78 270.39,-161.68"/>
<polygon fill="black" stroke="black" points="273.41,-163.46 275.8,-153.14 267.49,-159.72 273.41,-163.46"/>
<text text-anchor="middle" x="281.29" y="-173.83" font-family="Helvetica,sans-Serif" font-size="14.00">False</text>
</g>
<!-- 2 -->
<g id="node3" class="node">
<title>2</title>
<path fill="#f0b68c" stroke="black" d="M91,-53C91,-53 12,-53 12,-53 6,-53 0,-47 0,-41 0,-41 0,-12 0,-12 0,-6 6,0 12,0 12,0 91,0 91,0 97,0 103,-6 103,-12 103,-12 103,-41 103,-41 103,-47 97,-53 91,-53"/>
<text text-anchor="start" x="11" y="-37.8" font-family="Helvetica,sans-Serif" font-size="14.00">mse = 0.192</text>
<text text-anchor="start" x="8" y="-22.8" font-family="Helvetica,sans-Serif" font-size="14.00">samples = 11</text>
<text text-anchor="start" x="8.5" y="-7.8" font-family="Helvetica,sans-Serif" font-size="14.00">value = 0.052</text>
</g>
<!-- 1&#45;&gt;2 -->
<g id="edge2" class="edge">
<title>1&#45;&gt;2</title>
<path fill="none" stroke="black" d="M131.87,-88.94C119.37,-79.38 105.59,-68.85 93.03,-59.25"/>
<polygon fill="black" stroke="black" points="95.05,-56.38 84.98,-53.09 90.79,-61.94 95.05,-56.38"/>
</g>
<!-- 3 -->
<g id="node4" class="node">
<title>3</title>
<path fill="#e58139" stroke="black" d="M212,-53C212,-53 133,-53 133,-53 127,-53 121,-47 121,-41 121,-41 121,-12 121,-12 121,-6 127,0 133,0 133,0 212,0 212,0 218,0 224,-6 224,-12 224,-12 224,-41 224,-41 224,-47 218,-53 212,-53"/>
<text text-anchor="start" x="132" y="-37.8" font-family="Helvetica,sans-Serif" font-size="14.00">mse = 0.148</text>
<text text-anchor="start" x="129" y="-22.8" font-family="Helvetica,sans-Serif" font-size="14.00">samples = 40</text>
<text text-anchor="start" x="129.5" y="-7.8" font-family="Helvetica,sans-Serif" font-size="14.00">value = 0.714</text>
</g>
<!-- 1&#45;&gt;3 -->
<g id="edge3" class="edge">
<title>1&#45;&gt;3</title>
<path fill="none" stroke="black" d="M172.5,-88.94C172.5,-80.66 172.5,-71.64 172.5,-63.13"/>
<polygon fill="black" stroke="black" points="176,-63.09 172.5,-53.09 169,-63.09 176,-63.09"/>
</g>
<!-- 5 -->
<g id="node6" class="node">
<title>5</title>
<path fill="#f8decb" stroke="black" d="M337,-53C337,-53 254,-53 254,-53 248,-53 242,-47 242,-41 242,-41 242,-12 242,-12 242,-6 248,0 254,0 254,0 337,0 337,0 343,0 349,-6 349,-12 349,-12 349,-41 349,-41 349,-47 343,-53 337,-53"/>
<text text-anchor="start" x="255" y="-37.8" font-family="Helvetica,sans-Serif" font-size="14.00">mse = 0.124</text>
<text text-anchor="start" x="252" y="-22.8" font-family="Helvetica,sans-Serif" font-size="14.00">samples = 14</text>
<text text-anchor="start" x="250" y="-7.8" font-family="Helvetica,sans-Serif" font-size="14.00">value = &#45;0.452</text>
</g>
<!-- 4&#45;&gt;5 -->
<g id="edge5" class="edge">
<title>4&#45;&gt;5</title>
<path fill="none" stroke="black" d="M295.5,-88.94C295.5,-80.66 295.5,-71.64 295.5,-63.13"/>
<polygon fill="black" stroke="black" points="299,-63.09 295.5,-53.09 292,-63.09 299,-63.09"/>
</g>
<!-- 6 -->
<g id="node7" class="node">
<title>6</title>
<path fill="#ffffff" stroke="black" d="M462,-53C462,-53 379,-53 379,-53 373,-53 367,-47 367,-41 367,-41 367,-12 367,-12 367,-6 373,0 379,0 379,0 462,0 462,0 468,0 474,-6 474,-12 474,-12 474,-41 474,-41 474,-47 468,-53 462,-53"/>
<text text-anchor="start" x="380" y="-37.8" font-family="Helvetica,sans-Serif" font-size="14.00">mse = 0.041</text>
<text text-anchor="start" x="377" y="-22.8" font-family="Helvetica,sans-Serif" font-size="14.00">samples = 15</text>
<text text-anchor="start" x="375" y="-7.8" font-family="Helvetica,sans-Serif" font-size="14.00">value = &#45;0.869</text>
</g>
<!-- 4&#45;&gt;6 -->
<g id="edge6" class="edge">
<title>4&#45;&gt;6</title>
<path fill="none" stroke="black" d="M337.47,-88.94C350.39,-79.38 364.62,-68.85 377.6,-59.25"/>
<polygon fill="black" stroke="black" points="379.96,-61.85 385.92,-53.09 375.8,-56.23 379.96,-61.85"/>
</g>
</g>
</svg>
