<?xml version="1.0" encoding="UTF-8" standalone="no"?>
<!DOCTYPE svg PUBLIC "-//W3C//DTD SVG 1.1//EN"
 "http://www.w3.org/Graphics/SVG/1.1/DTD/svg11.dtd">
<!-- Generated by graphviz version 2.47.1 (20210417.1919)
 -->
<!-- Title: Tree Pages: 1 -->
<svg width="773pt" height="671pt"
 viewBox="0.00 0.00 773.00 671.00" xmlns="http://www.w3.org/2000/svg" xmlns:xlink="http://www.w3.org/1999/xlink">
<g id="graph0" class="graph" transform="scale(1 1) rotate(0) translate(4 667)">
<title>Tree</title>
<polygon fill="white" stroke="transparent" points="-4,4 -4,-667 769,-667 769,4 -4,4"/>
<!-- 0 -->
<g id="node1" class="node">
<title>0</title>
<path fill="#fffdfc" stroke="black" d="M270,-663C270,-663 143,-663 143,-663 137,-663 131,-657 131,-651 131,-651 131,-592 131,-592 131,-586 137,-580 143,-580 143,-580 270,-580 270,-580 276,-580 282,-586 282,-592 282,-592 282,-651 282,-651 282,-657 276,-663 270,-663"/>
<text text-anchor="start" x="139" y="-647.8" font-family="Helvetica,sans-Serif" font-size="14.00">petal width (cm) ≤ 0.8</text>
<text text-anchor="start" x="169" y="-632.8" font-family="Helvetica,sans-Serif" font-size="14.00">gini = 0.667</text>
<text text-anchor="start" x="159" y="-617.8" font-family="Helvetica,sans-Serif" font-size="14.00">samples = 112</text>
<text text-anchor="start" x="146" y="-602.8" font-family="Helvetica,sans-Serif" font-size="14.00">value = [38, 37, 37]</text>
<text text-anchor="start" x="160.5" y="-587.8" font-family="Helvetica,sans-Serif" font-size="14.00">class = setosa</text>
</g>
<!-- 1 -->
<g id="node2" class="node">
<title>1</title>
<path fill="#e58139" stroke="black" d="M175,-536.5C175,-536.5 78,-536.5 78,-536.5 72,-536.5 66,-530.5 66,-524.5 66,-524.5 66,-480.5 66,-480.5 66,-474.5 72,-468.5 78,-468.5 78,-468.5 175,-468.5 175,-468.5 181,-468.5 187,-474.5 187,-480.5 187,-480.5 187,-524.5 187,-524.5 187,-530.5 181,-536.5 175,-536.5"/>
<text text-anchor="start" x="97.5" y="-521.3" font-family="Helvetica,sans-Serif" font-size="14.00">gini = 0.0</text>
<text text-anchor="start" x="83" y="-506.3" font-family="Helvetica,sans-Serif" font-size="14.00">samples = 38</text>
<text text-anchor="start" x="74" y="-491.3" font-family="Helvetica,sans-Serif" font-size="14.00">value = [38, 0, 0]</text>
<text text-anchor="start" x="80.5" y="-476.3" font-family="Helvetica,sans-Serif" font-size="14.00">class = setosa</text>
</g>
<!-- 0&#45;&gt;1 -->
<g id="edge1" class="edge">
<title>0&#45;&gt;1</title>
<path fill="none" stroke="black" d="M178.74,-579.91C171.05,-568.65 162.68,-556.42 154.95,-545.11"/>
<polygon fill="black" stroke="black" points="157.71,-542.95 149.18,-536.67 151.93,-546.9 157.71,-542.95"/>
<text text-anchor="middle" x="144.56" y="-557.54" font-family="Helvetica,sans-Serif" font-size="14.00">True</text>
</g>
<!-- 2 -->
<g id="node3" class="node">
<title>2</title>
<path fill="#ffffff" stroke="black" d="M358,-544C358,-544 217,-544 217,-544 211,-544 205,-538 205,-532 205,-532 205,-473 205,-473 205,-467 211,-461 217,-461 217,-461 358,-461 358,-461 364,-461 370,-467 370,-473 370,-473 370,-532 370,-532 370,-538 364,-544 358,-544"/>
<text text-anchor="start" x="213" y="-528.8" font-family="Helvetica,sans-Serif" font-size="14.00">petal length (cm) ≤ 4.75</text>
<text text-anchor="start" x="258.5" y="-513.8" font-family="Helvetica,sans-Serif" font-size="14.00">gini = 0.5</text>
<text text-anchor="start" x="244" y="-498.8" font-family="Helvetica,sans-Serif" font-size="14.00">samples = 74</text>
<text text-anchor="start" x="231" y="-483.8" font-family="Helvetica,sans-Serif" font-size="14.00">value = [0, 37, 37]</text>
<text text-anchor="start" x="232" y="-468.8" font-family="Helvetica,sans-Serif" font-size="14.00">class = versicolor</text>
</g>
<!-- 0&#45;&gt;2 -->
<g id="edge2" class="edge">
<title>0&#45;&gt;2</title>
<path fill="none" stroke="black" d="M234.6,-579.91C240.76,-571.01 247.34,-561.51 253.69,-552.33"/>
<polygon fill="black" stroke="black" points="256.63,-554.24 259.45,-544.02 250.88,-550.25 256.63,-554.24"/>
<text text-anchor="middle" x="263.92" y="-564.92" font-family="Helvetica,sans-Serif" font-size="14.00">False</text>
</g>
<!-- 3 -->
<g id="node4" class="node">
<title>3</title>
<path fill="#3fe685" stroke="black" d="M265,-425C265,-425 130,-425 130,-425 124,-425 118,-419 118,-413 118,-413 118,-354 118,-354 118,-348 124,-342 130,-342 130,-342 265,-342 265,-342 271,-342 277,-348 277,-354 277,-354 277,-413 277,-413 277,-419 271,-425 265,-425"/>
<text text-anchor="start" x="126" y="-409.8" font-family="Helvetica,sans-Serif" font-size="14.00">petal width (cm) ≤ 1.65</text>
<text text-anchor="start" x="160" y="-394.8" font-family="Helvetica,sans-Serif" font-size="14.00">gini = 0.057</text>
<text text-anchor="start" x="154" y="-379.8" font-family="Helvetica,sans-Serif" font-size="14.00">samples = 34</text>
<text text-anchor="start" x="145" y="-364.8" font-family="Helvetica,sans-Serif" font-size="14.00">value = [0, 33, 1]</text>
<text text-anchor="start" x="142" y="-349.8" font-family="Helvetica,sans-Serif" font-size="14.00">class = versicolor</text>
</g>
<!-- 2&#45;&gt;3 -->
<g id="edge3" class="edge">
<title>2&#45;&gt;3</title>
<path fill="none" stroke="black" d="M256.27,-460.91C249.36,-451.92 241.97,-442.32 234.85,-433.05"/>
<polygon fill="black" stroke="black" points="237.54,-430.81 228.67,-425.02 231.99,-435.08 237.54,-430.81"/>
</g>
<!-- 6 -->
<g id="node7" class="node">
<title>6</title>
<path fill="#8f4fe8" stroke="black" d="M448,-425C448,-425 307,-425 307,-425 301,-425 295,-419 295,-413 295,-413 295,-354 295,-354 295,-348 301,-342 307,-342 307,-342 448,-342 448,-342 454,-342 460,-348 460,-354 460,-354 460,-413 460,-413 460,-419 454,-425 448,-425"/>
<text text-anchor="start" x="303" y="-409.8" font-family="Helvetica,sans-Serif" font-size="14.00">petal length (cm) ≤ 4.95</text>
<text text-anchor="start" x="344" y="-394.8" font-family="Helvetica,sans-Serif" font-size="14.00">gini = 0.18</text>
<text text-anchor="start" x="334" y="-379.8" font-family="Helvetica,sans-Serif" font-size="14.00">samples = 40</text>
<text text-anchor="start" x="325" y="-364.8" font-family="Helvetica,sans-Serif" font-size="14.00">value = [0, 4, 36]</text>
<text text-anchor="start" x="327.5" y="-349.8" font-family="Helvetica,sans-Serif" font-size="14.00">class = virginica</text>
</g>
<!-- 2&#45;&gt;6 -->
<g id="edge6" class="edge">
<title>2&#45;&gt;6</title>
<path fill="none" stroke="black" d="M318.73,-460.91C325.64,-451.92 333.03,-442.32 340.15,-433.05"/>
<polygon fill="black" stroke="black" points="343.01,-435.08 346.33,-425.02 337.46,-430.81 343.01,-435.08"/>
</g>
<!-- 4 -->
<g id="node5" class="node">
<title>4</title>
<path fill="#39e581" stroke="black" d="M115,-298.5C115,-298.5 12,-298.5 12,-298.5 6,-298.5 0,-292.5 0,-286.5 0,-286.5 0,-242.5 0,-242.5 0,-236.5 6,-230.5 12,-230.5 12,-230.5 115,-230.5 115,-230.5 121,-230.5 127,-236.5 127,-242.5 127,-242.5 127,-286.5 127,-286.5 127,-292.5 121,-298.5 115,-298.5"/>
<text text-anchor="start" x="34.5" y="-283.3" font-family="Helvetica,sans-Serif" font-size="14.00">gini = 0.0</text>
<text text-anchor="start" x="20" y="-268.3" font-family="Helvetica,sans-Serif" font-size="14.00">samples = 33</text>
<text text-anchor="start" x="11" y="-253.3" font-family="Helvetica,sans-Serif" font-size="14.00">value = [0, 33, 0]</text>
<text text-anchor="start" x="8" y="-238.3" font-family="Helvetica,sans-Serif" font-size="14.00">class = versicolor</text>
</g>
<!-- 3&#45;&gt;4 -->
<g id="edge4" class="edge">
<title>3&#45;&gt;4</title>
<path fill="none" stroke="black" d="M151.01,-341.91C137.49,-330.1 122.73,-317.22 109.25,-305.45"/>
<polygon fill="black" stroke="black" points="111.32,-302.61 101.49,-298.67 106.72,-307.88 111.32,-302.61"/>
</g>
<!-- 5 -->
<g id="node6" class="node">
<title>5</title>
<path fill="#8139e5" stroke="black" d="M249.5,-298.5C249.5,-298.5 157.5,-298.5 157.5,-298.5 151.5,-298.5 145.5,-292.5 145.5,-286.5 145.5,-286.5 145.5,-242.5 145.5,-242.5 145.5,-236.5 151.5,-230.5 157.5,-230.5 157.5,-230.5 249.5,-230.5 249.5,-230.5 255.5,-230.5 261.5,-236.5 261.5,-242.5 261.5,-242.5 261.5,-286.5 261.5,-286.5 261.5,-292.5 255.5,-298.5 249.5,-298.5"/>
<text text-anchor="start" x="174.5" y="-283.3" font-family="Helvetica,sans-Serif" font-size="14.00">gini = 0.0</text>
<text text-anchor="start" x="164" y="-268.3" font-family="Helvetica,sans-Serif" font-size="14.00">samples = 1</text>
<text text-anchor="start" x="155" y="-253.3" font-family="Helvetica,sans-Serif" font-size="14.00">value = [0, 0, 1]</text>
<text text-anchor="start" x="153.5" y="-238.3" font-family="Helvetica,sans-Serif" font-size="14.00">class = virginica</text>
</g>
<!-- 3&#45;&gt;5 -->
<g id="edge5" class="edge">
<title>3&#45;&gt;5</title>
<path fill="none" stroke="black" d="M199.58,-341.91C200.13,-331.2 200.72,-319.62 201.28,-308.78"/>
<polygon fill="black" stroke="black" points="204.78,-308.83 201.8,-298.67 197.79,-308.47 204.78,-308.83"/>
</g>
<!-- 7 -->
<g id="node8" class="node">
<title>7</title>
<path fill="#ffffff" stroke="black" d="M439,-306C439,-306 304,-306 304,-306 298,-306 292,-300 292,-294 292,-294 292,-235 292,-235 292,-229 298,-223 304,-223 304,-223 439,-223 439,-223 445,-223 451,-229 451,-235 451,-235 451,-294 451,-294 451,-300 445,-306 439,-306"/>
<text text-anchor="start" x="300" y="-290.8" font-family="Helvetica,sans-Serif" font-size="14.00">petal width (cm) ≤ 1.65</text>
<text text-anchor="start" x="342.5" y="-275.8" font-family="Helvetica,sans-Serif" font-size="14.00">gini = 0.5</text>
<text text-anchor="start" x="332" y="-260.8" font-family="Helvetica,sans-Serif" font-size="14.00">samples = 6</text>
<text text-anchor="start" x="323" y="-245.8" font-family="Helvetica,sans-Serif" font-size="14.00">value = [0, 3, 3]</text>
<text text-anchor="start" x="316" y="-230.8" font-family="Helvetica,sans-Serif" font-size="14.00">class = versicolor</text>
</g>
<!-- 6&#45;&gt;7 -->
<g id="edge7" class="edge">
<title>6&#45;&gt;7</title>
<path fill="none" stroke="black" d="M375.42,-341.91C374.99,-333.56 374.53,-324.67 374.09,-316.02"/>
<polygon fill="black" stroke="black" points="377.59,-315.83 373.58,-306.02 370.59,-316.19 377.59,-315.83"/>
</g>
<!-- 12 -->
<g id="node13" class="node">
<title>12</title>
<path fill="#853fe6" stroke="black" d="M610,-306C610,-306 483,-306 483,-306 477,-306 471,-300 471,-294 471,-294 471,-235 471,-235 471,-229 477,-223 483,-223 483,-223 610,-223 610,-223 616,-223 622,-229 622,-235 622,-235 622,-294 622,-294 622,-300 616,-306 610,-306"/>
<text text-anchor="start" x="479" y="-290.8" font-family="Helvetica,sans-Serif" font-size="14.00">petal width (cm) ≤ 1.7</text>
<text text-anchor="start" x="509" y="-275.8" font-family="Helvetica,sans-Serif" font-size="14.00">gini = 0.057</text>
<text text-anchor="start" x="503" y="-260.8" font-family="Helvetica,sans-Serif" font-size="14.00">samples = 34</text>
<text text-anchor="start" x="494" y="-245.8" font-family="Helvetica,sans-Serif" font-size="14.00">value = [0, 1, 33]</text>
<text text-anchor="start" x="496.5" y="-230.8" font-family="Helvetica,sans-Serif" font-size="14.00">class = virginica</text>
</g>
<!-- 6&#45;&gt;12 -->
<g id="edge12" class="edge">
<title>6&#45;&gt;12</title>
<path fill="none" stroke="black" d="M436.13,-341.91C450.16,-332.2 465.24,-321.76 479.61,-311.81"/>
<polygon fill="black" stroke="black" points="481.74,-314.59 487.97,-306.02 477.76,-308.84 481.74,-314.59"/>
</g>
<!-- 8 -->
<g id="node9" class="node">
<title>8</title>
<path fill="#39e581" stroke="black" d="M264,-179.5C264,-179.5 161,-179.5 161,-179.5 155,-179.5 149,-173.5 149,-167.5 149,-167.5 149,-123.5 149,-123.5 149,-117.5 155,-111.5 161,-111.5 161,-111.5 264,-111.5 264,-111.5 270,-111.5 276,-117.5 276,-123.5 276,-123.5 276,-167.5 276,-167.5 276,-173.5 270,-179.5 264,-179.5"/>
<text text-anchor="start" x="183.5" y="-164.3" font-family="Helvetica,sans-Serif" font-size="14.00">gini = 0.0</text>
<text text-anchor="start" x="173" y="-149.3" font-family="Helvetica,sans-Serif" font-size="14.00">samples = 2</text>
<text text-anchor="start" x="164" y="-134.3" font-family="Helvetica,sans-Serif" font-size="14.00">value = [0, 2, 0]</text>
<text text-anchor="start" x="157" y="-119.3" font-family="Helvetica,sans-Serif" font-size="14.00">class = versicolor</text>
</g>
<!-- 7&#45;&gt;8 -->
<g id="edge8" class="edge">
<title>7&#45;&gt;8</title>
<path fill="none" stroke="black" d="M316.34,-222.91C299.99,-210.88 282.13,-197.73 265.9,-185.79"/>
<polygon fill="black" stroke="black" points="267.7,-182.77 257.57,-179.67 263.55,-188.41 267.7,-182.77"/>
</g>
<!-- 9 -->
<g id="node10" class="node">
<title>9</title>
<path fill="#ab7bee" stroke="black" d="M437,-187C437,-187 306,-187 306,-187 300,-187 294,-181 294,-175 294,-175 294,-116 294,-116 294,-110 300,-104 306,-104 306,-104 437,-104 437,-104 443,-104 449,-110 449,-116 449,-116 449,-175 449,-175 449,-181 443,-187 437,-187"/>
<text text-anchor="start" x="302" y="-171.8" font-family="Helvetica,sans-Serif" font-size="14.00">sepal width (cm) ≤ 3.0</text>
<text text-anchor="start" x="334" y="-156.8" font-family="Helvetica,sans-Serif" font-size="14.00">gini = 0.375</text>
<text text-anchor="start" x="332" y="-141.8" font-family="Helvetica,sans-Serif" font-size="14.00">samples = 4</text>
<text text-anchor="start" x="323" y="-126.8" font-family="Helvetica,sans-Serif" font-size="14.00">value = [0, 1, 3]</text>
<text text-anchor="start" x="321.5" y="-111.8" font-family="Helvetica,sans-Serif" font-size="14.00">class = virginica</text>
</g>
<!-- 7&#45;&gt;9 -->
<g id="edge9" class="edge">
<title>7&#45;&gt;9</title>
<path fill="none" stroke="black" d="M371.5,-222.91C371.5,-214.65 371.5,-205.86 371.5,-197.3"/>
<polygon fill="black" stroke="black" points="375,-197.02 371.5,-187.02 368,-197.02 375,-197.02"/>
</g>
<!-- 10 -->
<g id="node11" class="node">
<title>10</title>
<path fill="#8139e5" stroke="black" d="M286.5,-68C286.5,-68 194.5,-68 194.5,-68 188.5,-68 182.5,-62 182.5,-56 182.5,-56 182.5,-12 182.5,-12 182.5,-6 188.5,0 194.5,0 194.5,0 286.5,0 286.5,0 292.5,0 298.5,-6 298.5,-12 298.5,-12 298.5,-56 298.5,-56 298.5,-62 292.5,-68 286.5,-68"/>
<text text-anchor="start" x="211.5" y="-52.8" font-family="Helvetica,sans-Serif" font-size="14.00">gini = 0.0</text>
<text text-anchor="start" x="201" y="-37.8" font-family="Helvetica,sans-Serif" font-size="14.00">samples = 3</text>
<text text-anchor="start" x="192" y="-22.8" font-family="Helvetica,sans-Serif" font-size="14.00">value = [0, 0, 3]</text>
<text text-anchor="start" x="190.5" y="-7.8" font-family="Helvetica,sans-Serif" font-size="14.00">class = virginica</text>
</g>
<!-- 9&#45;&gt;10 -->
<g id="edge10" class="edge">
<title>9&#45;&gt;10</title>
<path fill="none" stroke="black" d="M322.72,-103.73C311.37,-94.24 299.31,-84.16 288.01,-74.72"/>
<polygon fill="black" stroke="black" points="290.26,-72.03 280.34,-68.3 285.77,-77.4 290.26,-72.03"/>
</g>
<!-- 11 -->
<g id="node12" class="node">
<title>11</title>
<path fill="#39e581" stroke="black" d="M432,-68C432,-68 329,-68 329,-68 323,-68 317,-62 317,-56 317,-56 317,-12 317,-12 317,-6 323,0 329,0 329,0 432,0 432,0 438,0 444,-6 444,-12 444,-12 444,-56 444,-56 444,-62 438,-68 432,-68"/>
<text text-anchor="start" x="351.5" y="-52.8" font-family="Helvetica,sans-Serif" font-size="14.00">gini = 0.0</text>
<text text-anchor="start" x="341" y="-37.8" font-family="Helvetica,sans-Serif" font-size="14.00">samples = 1</text>
<text text-anchor="start" x="332" y="-22.8" font-family="Helvetica,sans-Serif" font-size="14.00">value = [0, 1, 0]</text>
<text text-anchor="start" x="325" y="-7.8" font-family="Helvetica,sans-Serif" font-size="14.00">class = versicolor</text>
</g>
<!-- 9&#45;&gt;11 -->
<g id="edge11" class="edge">
<title>9&#45;&gt;11</title>
<path fill="none" stroke="black" d="M374.85,-103.73C375.53,-95.43 376.25,-86.67 376.94,-78.28"/>
<polygon fill="black" stroke="black" points="380.43,-78.55 377.76,-68.3 373.46,-77.98 380.43,-78.55"/>
</g>
<!-- 13 -->
<g id="node14" class="node">
<title>13</title>
<path fill="#a06aec" stroke="black" d="M614,-187C614,-187 479,-187 479,-187 473,-187 467,-181 467,-175 467,-175 467,-116 467,-116 467,-110 473,-104 479,-104 479,-104 614,-104 614,-104 620,-104 626,-110 626,-116 626,-116 626,-175 626,-175 626,-181 620,-187 614,-187"/>
<text text-anchor="start" x="475" y="-171.8" font-family="Helvetica,sans-Serif" font-size="14.00">petal width (cm) ≤ 1.55</text>
<text text-anchor="start" x="513" y="-156.8" font-family="Helvetica,sans-Serif" font-size="14.00">gini = 0.32</text>
<text text-anchor="start" x="507" y="-141.8" font-family="Helvetica,sans-Serif" font-size="14.00">samples = 5</text>
<text text-anchor="start" x="498" y="-126.8" font-family="Helvetica,sans-Serif" font-size="14.00">value = [0, 1, 4]</text>
<text text-anchor="start" x="496.5" y="-111.8" font-family="Helvetica,sans-Serif" font-size="14.00">class = virginica</text>
</g>
<!-- 12&#45;&gt;13 -->
<g id="edge13" class="edge">
<title>12&#45;&gt;13</title>
<path fill="none" stroke="black" d="M546.5,-222.91C546.5,-214.65 546.5,-205.86 546.5,-197.3"/>
<polygon fill="black" stroke="black" points="550,-197.02 546.5,-187.02 543,-197.02 550,-197.02"/>
</g>
<!-- 16 -->
<g id="node17" class="node">
<title>16</title>
<path fill="#8139e5" stroke="black" d="M753,-179.5C753,-179.5 656,-179.5 656,-179.5 650,-179.5 644,-173.5 644,-167.5 644,-167.5 644,-123.5 644,-123.5 644,-117.5 650,-111.5 656,-111.5 656,-111.5 753,-111.5 753,-111.5 759,-111.5 765,-117.5 765,-123.5 765,-123.5 765,-167.5 765,-167.5 765,-173.5 759,-179.5 753,-179.5"/>
<text text-anchor="start" x="675.5" y="-164.3" font-family="Helvetica,sans-Serif" font-size="14.00">gini = 0.0</text>
<text text-anchor="start" x="661" y="-149.3" font-family="Helvetica,sans-Serif" font-size="14.00">samples = 29</text>
<text text-anchor="start" x="652" y="-134.3" font-family="Helvetica,sans-Serif" font-size="14.00">value = [0, 0, 29]</text>
<text text-anchor="start" x="654.5" y="-119.3" font-family="Helvetica,sans-Serif" font-size="14.00">class = virginica</text>
</g>
<!-- 12&#45;&gt;16 -->
<g id="edge16" class="edge">
<title>12&#45;&gt;16</title>
<path fill="none" stroke="black" d="M601.32,-222.91C617.56,-210.88 635.31,-197.73 651.44,-185.79"/>
<polygon fill="black" stroke="black" points="653.76,-188.43 659.71,-179.67 649.59,-182.81 653.76,-188.43"/>
</g>
<!-- 14 -->
<g id="node15" class="node">
<title>14</title>
<path fill="#8139e5" stroke="black" d="M583.5,-68C583.5,-68 491.5,-68 491.5,-68 485.5,-68 479.5,-62 479.5,-56 479.5,-56 479.5,-12 479.5,-12 479.5,-6 485.5,0 491.5,0 491.5,0 583.5,0 583.5,0 589.5,0 595.5,-6 595.5,-12 595.5,-12 595.5,-56 595.5,-56 595.5,-62 589.5,-68 583.5,-68"/>
<text text-anchor="start" x="508.5" y="-52.8" font-family="Helvetica,sans-Serif" font-size="14.00">gini = 0.0</text>
<text text-anchor="start" x="498" y="-37.8" font-family="Helvetica,sans-Serif" font-size="14.00">samples = 3</text>
<text text-anchor="start" x="489" y="-22.8" font-family="Helvetica,sans-Serif" font-size="14.00">value = [0, 0, 3]</text>
<text text-anchor="start" x="487.5" y="-7.8" font-family="Helvetica,sans-Serif" font-size="14.00">class = virginica</text>
</g>
<!-- 13&#45;&gt;14 -->
<g id="edge14" class="edge">
<title>13&#45;&gt;14</title>
<path fill="none" stroke="black" d="M543.15,-103.73C542.47,-95.43 541.75,-86.67 541.06,-78.28"/>
<polygon fill="black" stroke="black" points="544.54,-77.98 540.24,-68.3 537.57,-78.55 544.54,-77.98"/>
</g>
<!-- 15 -->
<g id="node16" class="node">
<title>15</title>
<path fill="#ffffff" stroke="black" d="M729,-68C729,-68 626,-68 626,-68 620,-68 614,-62 614,-56 614,-56 614,-12 614,-12 614,-6 620,0 626,0 626,0 729,0 729,0 735,0 741,-6 741,-12 741,-12 741,-56 741,-56 741,-62 735,-68 729,-68"/>
<text text-anchor="start" x="648.5" y="-52.8" font-family="Helvetica,sans-Serif" font-size="14.00">gini = 0.5</text>
<text text-anchor="start" x="638" y="-37.8" font-family="Helvetica,sans-Serif" font-size="14.00">samples = 2</text>
<text text-anchor="start" x="629" y="-22.8" font-family="Helvetica,sans-Serif" font-size="14.00">value = [0, 1, 1]</text>
<text text-anchor="start" x="622" y="-7.8" font-family="Helvetica,sans-Serif" font-size="14.00">class = versicolor</text>
</g>
<!-- 13&#45;&gt;15 -->
<g id="edge15" class="edge">
<title>13&#45;&gt;15</title>
<path fill="none" stroke="black" d="M595.28,-103.73C606.63,-94.24 618.69,-84.16 629.99,-74.72"/>
<polygon fill="black" stroke="black" points="632.23,-77.4 637.66,-68.3 627.74,-72.03 632.23,-77.4"/>
</g>
</g>
</svg>
