<?xml version="1.0" encoding="UTF-8" standalone="no"?>
<!DOCTYPE svg PUBLIC "-//W3C//DTD SVG 1.1//EN"
 "http://www.w3.org/Graphics/SVG/1.1/DTD/svg11.dtd">
<!-- Generated by graphviz version 2.47.1 (20210417.1919)
 -->
<!-- Title: Tree Pages: 1 -->
<svg width="574pt" height="433pt"
 viewBox="0.00 0.00 574.00 433.00" xmlns="http://www.w3.org/2000/svg" xmlns:xlink="http://www.w3.org/1999/xlink">
<g id="graph0" class="graph" transform="scale(1 1) rotate(0) translate(4 429)">
<title>Tree</title>
<polygon fill="white" stroke="transparent" points="-4,4 -4,-429 570,-429 570,4 -4,4"/>
<!-- 0 -->
<g id="node1" class="node">
<title>0</title>
<path fill="#fffdfc" stroke="black" d="M266,-425C266,-425 139,-425 139,-425 133,-425 127,-419 127,-413 127,-413 127,-354 127,-354 127,-348 133,-342 139,-342 139,-342 266,-342 266,-342 272,-342 278,-348 278,-354 278,-354 278,-413 278,-413 278,-419 272,-425 266,-425"/>
<text text-anchor="start" x="135" y="-409.8" font-family="Helvetica,sans-Serif" font-size="14.00">petal width (cm) ≤ 0.8</text>
<text text-anchor="start" x="165" y="-394.8" font-family="Helvetica,sans-Serif" font-size="14.00">gini = 0.667</text>
<text text-anchor="start" x="155" y="-379.8" font-family="Helvetica,sans-Serif" font-size="14.00">samples = 112</text>
<text text-anchor="start" x="142" y="-364.8" font-family="Helvetica,sans-Serif" font-size="14.00">value = [38, 37, 37]</text>
<text text-anchor="start" x="156.5" y="-349.8" font-family="Helvetica,sans-Serif" font-size="14.00">class = setosa</text>
</g>
<!-- 1 -->
<g id="node2" class="node">
<title>1</title>
<path fill="#e58139" stroke="black" d="M171,-298.5C171,-298.5 74,-298.5 74,-298.5 68,-298.5 62,-292.5 62,-286.5 62,-286.5 62,-242.5 62,-242.5 62,-236.5 68,-230.5 74,-230.5 74,-230.5 171,-230.5 171,-230.5 177,-230.5 183,-236.5 183,-242.5 183,-242.5 183,-286.5 183,-286.5 183,-292.5 177,-298.5 171,-298.5"/>
<text text-anchor="start" x="93.5" y="-283.3" font-family="Helvetica,sans-Serif" font-size="14.00">gini = 0.0</text>
<text text-anchor="start" x="79" y="-268.3" font-family="Helvetica,sans-Serif" font-size="14.00">samples = 38</text>
<text text-anchor="start" x="70" y="-253.3" font-family="Helvetica,sans-Serif" font-size="14.00">value = [38, 0, 0]</text>
<text text-anchor="start" x="76.5" y="-238.3" font-family="Helvetica,sans-Serif" font-size="14.00">class = setosa</text>
</g>
<!-- 0&#45;&gt;1 -->
<g id="edge1" class="edge">
<title>0&#45;&gt;1</title>
<path fill="none" stroke="black" d="M174.74,-341.91C167.05,-330.65 158.68,-318.42 150.95,-307.11"/>
<polygon fill="black" stroke="black" points="153.71,-304.95 145.18,-298.67 147.93,-308.9 153.71,-304.95"/>
<text text-anchor="middle" x="140.56" y="-319.54" font-family="Helvetica,sans-Serif" font-size="14.00">True</text>
</g>
<!-- 2 -->
<g id="node3" class="node">
<title>2</title>
<path fill="#ffffff" stroke="black" d="M354,-306C354,-306 213,-306 213,-306 207,-306 201,-300 201,-294 201,-294 201,-235 201,-235 201,-229 207,-223 213,-223 213,-223 354,-223 354,-223 360,-223 366,-229 366,-235 366,-235 366,-294 366,-294 366,-300 360,-306 354,-306"/>
<text text-anchor="start" x="209" y="-290.8" font-family="Helvetica,sans-Serif" font-size="14.00">petal length (cm) ≤ 4.75</text>
<text text-anchor="start" x="254.5" y="-275.8" font-family="Helvetica,sans-Serif" font-size="14.00">gini = 0.5</text>
<text text-anchor="start" x="240" y="-260.8" font-family="Helvetica,sans-Serif" font-size="14.00">samples = 74</text>
<text text-anchor="start" x="227" y="-245.8" font-family="Helvetica,sans-Serif" font-size="14.00">value = [0, 37, 37]</text>
<text text-anchor="start" x="228" y="-230.8" font-family="Helvetica,sans-Serif" font-size="14.00">class = versicolor</text>
</g>
<!-- 0&#45;&gt;2 -->
<g id="edge2" class="edge">
<title>0&#45;&gt;2</title>
<path fill="none" stroke="black" d="M230.6,-341.91C236.76,-333.01 243.34,-323.51 249.69,-314.33"/>
<polygon fill="black" stroke="black" points="252.63,-316.24 255.45,-306.02 246.88,-312.25 252.63,-316.24"/>
<text text-anchor="middle" x="259.92" y="-326.92" font-family="Helvetica,sans-Serif" font-size="14.00">False</text>
</g>
<!-- 3 -->
<g id="node4" class="node">
<title>3</title>
<path fill="#3fe685" stroke="black" d="M261,-187C261,-187 126,-187 126,-187 120,-187 114,-181 114,-175 114,-175 114,-116 114,-116 114,-110 120,-104 126,-104 126,-104 261,-104 261,-104 267,-104 273,-110 273,-116 273,-116 273,-175 273,-175 273,-181 267,-187 261,-187"/>
<text text-anchor="start" x="122" y="-171.8" font-family="Helvetica,sans-Serif" font-size="14.00">petal width (cm) ≤ 1.65</text>
<text text-anchor="start" x="156" y="-156.8" font-family="Helvetica,sans-Serif" font-size="14.00">gini = 0.057</text>
<text text-anchor="start" x="150" y="-141.8" font-family="Helvetica,sans-Serif" font-size="14.00">samples = 34</text>
<text text-anchor="start" x="141" y="-126.8" font-family="Helvetica,sans-Serif" font-size="14.00">value = [0, 33, 1]</text>
<text text-anchor="start" x="138" y="-111.8" font-family="Helvetica,sans-Serif" font-size="14.00">class = versicolor</text>
</g>
<!-- 2&#45;&gt;3 -->
<g id="edge3" class="edge">
<title>2&#45;&gt;3</title>
<path fill="none" stroke="black" d="M252.27,-222.91C245.36,-213.92 237.97,-204.32 230.85,-195.05"/>
<polygon fill="black" stroke="black" points="233.54,-192.81 224.67,-187.02 227.99,-197.08 233.54,-192.81"/>
</g>
<!-- 6 -->
<g id="node7" class="node">
<title>6</title>
<path fill="#8f4fe8" stroke="black" d="M444,-187C444,-187 303,-187 303,-187 297,-187 291,-181 291,-175 291,-175 291,-116 291,-116 291,-110 297,-104 303,-104 303,-104 444,-104 444,-104 450,-104 456,-110 456,-116 456,-116 456,-175 456,-175 456,-181 450,-187 444,-187"/>
<text text-anchor="start" x="299" y="-171.8" font-family="Helvetica,sans-Serif" font-size="14.00">petal length (cm) ≤ 4.95</text>
<text text-anchor="start" x="340" y="-156.8" font-family="Helvetica,sans-Serif" font-size="14.00">gini = 0.18</text>
<text text-anchor="start" x="330" y="-141.8" font-family="Helvetica,sans-Serif" font-size="14.00">samples = 40</text>
<text text-anchor="start" x="321" y="-126.8" font-family="Helvetica,sans-Serif" font-size="14.00">value = [0, 4, 36]</text>
<text text-anchor="start" x="323.5" y="-111.8" font-family="Helvetica,sans-Serif" font-size="14.00">class = virginica</text>
</g>
<!-- 2&#45;&gt;6 -->
<g id="edge6" class="edge">
<title>2&#45;&gt;6</title>
<path fill="none" stroke="black" d="M314.73,-222.91C321.64,-213.92 329.03,-204.32 336.15,-195.05"/>
<polygon fill="black" stroke="black" points="339.01,-197.08 342.33,-187.02 333.46,-192.81 339.01,-197.08"/>
</g>
<!-- 4 -->
<g id="node5" class="node">
<title>4</title>
<path fill="#39e581" stroke="black" d="M115,-68C115,-68 12,-68 12,-68 6,-68 0,-62 0,-56 0,-56 0,-12 0,-12 0,-6 6,0 12,0 12,0 115,0 115,0 121,0 127,-6 127,-12 127,-12 127,-56 127,-56 127,-62 121,-68 115,-68"/>
<text text-anchor="start" x="34.5" y="-52.8" font-family="Helvetica,sans-Serif" font-size="14.00">gini = 0.0</text>
<text text-anchor="start" x="20" y="-37.8" font-family="Helvetica,sans-Serif" font-size="14.00">samples = 33</text>
<text text-anchor="start" x="11" y="-22.8" font-family="Helvetica,sans-Serif" font-size="14.00">value = [0, 33, 0]</text>
<text text-anchor="start" x="8" y="-7.8" font-family="Helvetica,sans-Serif" font-size="14.00">class = versicolor</text>
</g>
<!-- 3&#45;&gt;4 -->
<g id="edge4" class="edge">
<title>3&#45;&gt;4</title>
<path fill="none" stroke="black" d="M145.09,-103.73C133.94,-94.33 122.09,-84.35 110.97,-74.99"/>
<polygon fill="black" stroke="black" points="112.94,-72.06 103.03,-68.3 108.43,-77.42 112.94,-72.06"/>
</g>
<!-- 5 -->
<g id="node6" class="node">
<title>5</title>
<path fill="#8139e5" stroke="black" d="M249.5,-68C249.5,-68 157.5,-68 157.5,-68 151.5,-68 145.5,-62 145.5,-56 145.5,-56 145.5,-12 145.5,-12 145.5,-6 151.5,0 157.5,0 157.5,0 249.5,0 249.5,0 255.5,0 261.5,-6 261.5,-12 261.5,-12 261.5,-56 261.5,-56 261.5,-62 255.5,-68 249.5,-68"/>
<text text-anchor="start" x="174.5" y="-52.8" font-family="Helvetica,sans-Serif" font-size="14.00">gini = 0.0</text>
<text text-anchor="start" x="164" y="-37.8" font-family="Helvetica,sans-Serif" font-size="14.00">samples = 1</text>
<text text-anchor="start" x="155" y="-22.8" font-family="Helvetica,sans-Serif" font-size="14.00">value = [0, 0, 1]</text>
<text text-anchor="start" x="153.5" y="-7.8" font-family="Helvetica,sans-Serif" font-size="14.00">class = virginica</text>
</g>
<!-- 3&#45;&gt;5 -->
<g id="edge5" class="edge">
<title>3&#45;&gt;5</title>
<path fill="none" stroke="black" d="M197.22,-103.73C197.98,-95.43 198.78,-86.67 199.55,-78.28"/>
<polygon fill="black" stroke="black" points="203.03,-78.58 200.46,-68.3 196.06,-77.94 203.03,-78.58"/>
</g>
<!-- 7 -->
<g id="node8" class="node">
<title>7</title>
<path fill="#ffffff" stroke="black" d="M415,-68C415,-68 312,-68 312,-68 306,-68 300,-62 300,-56 300,-56 300,-12 300,-12 300,-6 306,0 312,0 312,0 415,0 415,0 421,0 427,-6 427,-12 427,-12 427,-56 427,-56 427,-62 421,-68 415,-68"/>
<text text-anchor="start" x="334.5" y="-52.8" font-family="Helvetica,sans-Serif" font-size="14.00">gini = 0.5</text>
<text text-anchor="start" x="324" y="-37.8" font-family="Helvetica,sans-Serif" font-size="14.00">samples = 6</text>
<text text-anchor="start" x="315" y="-22.8" font-family="Helvetica,sans-Serif" font-size="14.00">value = [0, 3, 3]</text>
<text text-anchor="start" x="308" y="-7.8" font-family="Helvetica,sans-Serif" font-size="14.00">class = versicolor</text>
</g>
<!-- 6&#45;&gt;7 -->
<g id="edge7" class="edge">
<title>6&#45;&gt;7</title>
<path fill="none" stroke="black" d="M369.78,-103.73C369.02,-95.43 368.22,-86.67 367.45,-78.28"/>
<polygon fill="black" stroke="black" points="370.94,-77.94 366.54,-68.3 363.97,-78.58 370.94,-77.94"/>
</g>
<!-- 8 -->
<g id="node9" class="node">
<title>8</title>
<path fill="#853fe6" stroke="black" d="M554,-68C554,-68 457,-68 457,-68 451,-68 445,-62 445,-56 445,-56 445,-12 445,-12 445,-6 451,0 457,0 457,0 554,0 554,0 560,0 566,-6 566,-12 566,-12 566,-56 566,-56 566,-62 560,-68 554,-68"/>
<text text-anchor="start" x="468" y="-52.8" font-family="Helvetica,sans-Serif" font-size="14.00">gini = 0.057</text>
<text text-anchor="start" x="462" y="-37.8" font-family="Helvetica,sans-Serif" font-size="14.00">samples = 34</text>
<text text-anchor="start" x="453" y="-22.8" font-family="Helvetica,sans-Serif" font-size="14.00">value = [0, 1, 33]</text>
<text text-anchor="start" x="455.5" y="-7.8" font-family="Helvetica,sans-Serif" font-size="14.00">class = virginica</text>
</g>
<!-- 6&#45;&gt;8 -->
<g id="edge8" class="edge">
<title>6&#45;&gt;8</title>
<path fill="none" stroke="black" d="M422.65,-103.73C434.09,-94.24 446.24,-84.16 457.62,-74.72"/>
<polygon fill="black" stroke="black" points="459.9,-77.38 465.36,-68.3 455.43,-71.99 459.9,-77.38"/>
</g>
</g>
</svg>
